<svg xmlns="http://www.w3.org/2000/svg" height="40" viewBox="0 -960 960 960" width="40"><path d="M186.666-80q-27 0-46.833-19.833T120-146.666v-513.335q0-26.999 19.833-46.833 19.833-19.833 46.833-19.833h100.001q0-80.333 54.833-136.833T476.667-920q80.333 0 138.5 56.5 58.166 56.5 58.166 136.833h100.001q27 0 46.833 19.833Q840-687 840-660.001v513.335q0 27-19.833 46.833T773.334-80H186.666ZM480-420.001q80.333 0 138.5-58.166 58.167-58.167 58.167-138.5H610q0 53.333-38.333 91.667-38.334 38.333-91.667 38.333T388.333-525Q350-563.334 350-616.667h-66.667q0 80.333 58.167 138.5 58.167 58.166 138.5 58.166ZM353.333-726.667h253.334q0-53.333-36.667-90t-90-36.667q-53.333 0-90 36.667t-36.667 90Z"/></svg>